<svg xmlns="http://www.w3.org/2000/svg" viewBox="0 0 100 100">
    <defs>
        <radialGradient id="coinGradient" cx="50%" cy="58%" r="38%" fx="50%" fy="58%">
            <stop offset="0%" stop-color="#FFD700"/>    <stop offset="60%" stop-color="#FFC107"/>    <stop offset="100%" stop-color="#FFA000"/>   </radialGradient>
        <linearGradient id="capGradient" x1="0%" y1="0%" x2="100%" y2="100%">
            <stop offset="0%" stop-color="#FFD700"/>
            <stop offset="100%" stop-color="#FFC107"/>
        </linearGradient>
    </defs>

    <circle cx="50" cy="58" r="36" fill="url(#coinGradient)" stroke="#E6A000" stroke-width="1.5"/>

    <g transform="translate(0, 5)"> <path d="M50,40 C43,40 37,45 37,52 C37,58 41,62 44,64 L44,67 L56,67 L56,64 C59,62 63,58 63,52 C63,45 57,40 50,40 Z" fill="#FFFFFF"/>
        <path d="M46,61 Q50,55 54,61" stroke="#FFFFFF" stroke-width="2" stroke-linecap="round" fill="none"/>
    </g>

    <g>
        <path d="M25,25 L75,25 L70,35 L30,35 Z" fill="url(#capGradient)"/>
        <rect x="25" y="15" width="50" height="10" fill="url(#capGradient)"/>
        <line x1="50" y1="15" x2="50" y2="30" stroke="#E6A000" stroke-width="1.5" stroke-linecap="round"/>
        <circle cx="50" cy="30" r="2" fill="#E6A000"/>
    </g>

    <path d="M78,50 L81,53 L78,56 L75,53 Z" fill="rgba(255,255,255,0.7)"/>
</svg>